<svg width="28" height="30" viewBox="0 0 28 30" fill="none" xmlns="http://www.w3.org/2000/svg">
<path d="M6 2L2 7.33333V26C2 26.7072 2.28095 27.3855 2.78105 27.8856C3.28115 28.3857 3.95942 28.6667 4.66667 28.6667H23.3333C24.0406 28.6667 24.7189 28.3857 25.219 27.8856C25.719 27.3855 26 26.7072 26 26V7.33333L22 2H6Z" stroke="black" stroke-width="2.66667" stroke-linecap="round" stroke-linejoin="round"/>
<path d="M19.3334 12.6666C19.3334 14.0811 18.7715 15.4377 17.7713 16.4379C16.7711 17.4381 15.4146 18 14.0001 18C12.5856 18 11.229 17.4381 10.2288 16.4379C9.22865 15.4377 8.66675 14.0811 8.66675 12.6666" stroke="black" stroke-width="2.66667" stroke-linecap="round" stroke-linejoin="round"/>
<path d="M2 7.33325H26" stroke="black" stroke-width="2.66667" stroke-linecap="round" stroke-linejoin="round"/>
</svg>
