<svg width="35" height="29" viewBox="0 0 35 29" fill="none" xmlns="http://www.w3.org/2000/svg">
<path d="M26.6592 27C28.6048 27 30.1819 25.4229 30.1819 23.4773C30.1819 21.5318 28.6048 19.9546 26.6592 19.9546C24.7137 19.9546 23.1365 21.5318 23.1365 23.4773C23.1365 25.4229 24.7137 27 26.6592 27Z" stroke="black" stroke-width="2.81818" stroke-linecap="round" stroke-linejoin="round"/>
<path d="M8.34084 27C10.2864 27 11.8636 25.4229 11.8636 23.4773C11.8636 21.5318 10.2864 19.9546 8.34084 19.9546C6.39529 19.9546 4.81812 21.5318 4.81812 23.4773C4.81812 25.4229 6.39529 27 8.34084 27Z" stroke="black" stroke-width="2.81818" stroke-linecap="round" stroke-linejoin="round"/>
<path d="M23.1365 8.68176H28.7728L33.0001 12.909V19.9545H23.1365V8.68176Z" stroke="black" stroke-width="2.81818" stroke-linecap="round" stroke-linejoin="round"/>
<path d="M23.1364 1.63635H2V19.9545H23.1364V1.63635Z" stroke="black" stroke-width="2.81818" stroke-linecap="round" stroke-linejoin="round"/>
</svg>
